<mxfile host="app.diagrams.net" modified="2021-10-03T13:02:19.900Z" agent="5.0 (Windows NT 10.0; Win64; x64) AppleWebKit/537.36 (KHTML, like Gecko) Chrome/94.0.4606.61 Safari/537.36" etag="U6GGLVhzGOjEJD5Zk81S" version="15.4.1" type="github">
  <diagram id="M6cuTIGcN4mnhxkdC4Pi" name="Page-1">
    <mxGraphModel dx="967" dy="835" grid="1" gridSize="10" guides="1" tooltips="1" connect="1" arrows="1" fold="1" page="1" pageScale="1" pageWidth="583" pageHeight="827" math="0" shadow="0">
      <root>
        <mxCell id="0" />
        <mxCell id="1" parent="0" />
        <mxCell id="kOPWEgHHn9tKELu0OoGP-1" value="深伪视频检测模块" style="swimlane;fillColor=#0050EF;strokeColor=#000000;fontColor=#ffffff;strokeWidth=3;fontSize=18;" vertex="1" parent="1">
          <mxGeometry x="830" y="150" width="750" height="510" as="geometry" />
        </mxCell>
        <mxCell id="kOPWEgHHn9tKELu0OoGP-2" value="&lt;font style=&quot;font-size: 16px&quot;&gt;主干网络层1&lt;/font&gt;" style="sketch=0;points=[[0,0,0],[0.25,0,0],[0.5,0,0],[0.75,0,0],[1,0,0],[0,1,0],[0.25,1,0],[0.5,1,0],[0.75,1,0],[1,1,0],[0,0.25,0],[0,0.5,0],[0,0.75,0],[1,0.25,0],[1,0.5,0],[1,0.75,0]];outlineConnect=0;fontColor=#000000;gradientColor=#4AB29A;gradientDirection=north;fillColor=#ffffff;strokeColor=#000000;dashed=0;verticalLabelPosition=bottom;verticalAlign=top;align=center;html=1;fontSize=12;fontStyle=0;aspect=fixed;shape=mxgraph.aws4.resourceIcon;resIcon=mxgraph.aws4.deep_learning_amis;fontFamily=Helvetica;" vertex="1" parent="kOPWEgHHn9tKELu0OoGP-1">
          <mxGeometry x="10" y="350" width="90" height="40" as="geometry" />
        </mxCell>
        <mxCell id="kOPWEgHHn9tKELu0OoGP-3" style="edgeStyle=orthogonalEdgeStyle;rounded=0;orthogonalLoop=1;jettySize=auto;html=1;exitX=1;exitY=0.5;exitDx=0;exitDy=0;exitPerimeter=0;entryX=0;entryY=0.5;entryDx=0;entryDy=0;entryPerimeter=0;" edge="1" parent="kOPWEgHHn9tKELu0OoGP-1" source="kOPWEgHHn9tKELu0OoGP-4" target="kOPWEgHHn9tKELu0OoGP-10">
          <mxGeometry relative="1" as="geometry" />
        </mxCell>
        <mxCell id="kOPWEgHHn9tKELu0OoGP-4" value="&lt;font style=&quot;font-size: 16px&quot;&gt;主干网络层2&lt;/font&gt;" style="sketch=0;points=[[0,0,0],[0.25,0,0],[0.5,0,0],[0.75,0,0],[1,0,0],[0,1,0],[0.25,1,0],[0.5,1,0],[0.75,1,0],[1,1,0],[0,0.25,0],[0,0.5,0],[0,0.75,0],[1,0.25,0],[1,0.5,0],[1,0.75,0]];outlineConnect=0;fontColor=#000000;gradientColor=#4AB29A;gradientDirection=north;fillColor=#ffffff;strokeColor=#000000;dashed=0;verticalLabelPosition=bottom;verticalAlign=top;align=center;html=1;fontSize=12;fontStyle=0;aspect=fixed;shape=mxgraph.aws4.resourceIcon;resIcon=mxgraph.aws4.deep_learning_amis;fontFamily=Helvetica;" vertex="1" parent="kOPWEgHHn9tKELu0OoGP-1">
          <mxGeometry x="270" y="350" width="90" height="40" as="geometry" />
        </mxCell>
        <mxCell id="kOPWEgHHn9tKELu0OoGP-5" value="&lt;font style=&quot;font-size: 16px&quot;&gt;主干网络层3&lt;/font&gt;" style="sketch=0;points=[[0,0,0],[0.25,0,0],[0.5,0,0],[0.75,0,0],[1,0,0],[0,1,0],[0.25,1,0],[0.5,1,0],[0.75,1,0],[1,1,0],[0,0.25,0],[0,0.5,0],[0,0.75,0],[1,0.25,0],[1,0.5,0],[1,0.75,0]];outlineConnect=0;fontColor=#000000;gradientColor=#4AB29A;gradientDirection=north;fillColor=#ffffff;strokeColor=#000000;dashed=0;verticalLabelPosition=bottom;verticalAlign=top;align=center;html=1;fontSize=12;fontStyle=0;aspect=fixed;shape=mxgraph.aws4.resourceIcon;resIcon=mxgraph.aws4.deep_learning_amis;fontFamily=Helvetica;" vertex="1" parent="kOPWEgHHn9tKELu0OoGP-1">
          <mxGeometry x="520" y="350" width="90" height="40" as="geometry" />
        </mxCell>
        <mxCell id="kOPWEgHHn9tKELu0OoGP-6" style="edgeStyle=orthogonalEdgeStyle;rounded=0;orthogonalLoop=1;jettySize=auto;html=1;entryX=0;entryY=0.5;entryDx=0;entryDy=0;" edge="1" parent="kOPWEgHHn9tKELu0OoGP-1" source="kOPWEgHHn9tKELu0OoGP-7" target="kOPWEgHHn9tKELu0OoGP-4">
          <mxGeometry relative="1" as="geometry" />
        </mxCell>
        <mxCell id="kOPWEgHHn9tKELu0OoGP-7" value="&lt;font style=&quot;font-size: 16px&quot;&gt;浅层网络&lt;/font&gt;" style="sketch=0;points=[[0,0,0],[0.25,0,0],[0.5,0,0],[0.75,0,0],[1,0,0],[0,1,0],[0.25,1,0],[0.5,1,0],[0.75,1,0],[1,1,0],[0,0.25,0],[0,0.5,0],[0,0.75,0],[1,0.25,0],[1,0.5,0],[1,0.75,0]];outlineConnect=0;fontColor=#000000;gradientColor=#4AB29A;gradientDirection=north;fillColor=#ffffff;strokeColor=#000000;dashed=0;verticalLabelPosition=bottom;verticalAlign=top;align=center;html=1;fontSize=12;fontStyle=0;aspect=fixed;shape=mxgraph.aws4.resourceIcon;resIcon=mxgraph.aws4.textract;fontFamily=Helvetica;" vertex="1" parent="kOPWEgHHn9tKELu0OoGP-1">
          <mxGeometry x="160" y="350" width="60" height="40" as="geometry" />
        </mxCell>
        <mxCell id="kOPWEgHHn9tKELu0OoGP-8" value="" style="edgeStyle=orthogonalEdgeStyle;rounded=0;orthogonalLoop=1;jettySize=auto;html=1;" edge="1" parent="kOPWEgHHn9tKELu0OoGP-1" source="kOPWEgHHn9tKELu0OoGP-2" target="kOPWEgHHn9tKELu0OoGP-7">
          <mxGeometry relative="1" as="geometry" />
        </mxCell>
        <mxCell id="kOPWEgHHn9tKELu0OoGP-9" style="edgeStyle=orthogonalEdgeStyle;rounded=0;orthogonalLoop=1;jettySize=auto;html=1;exitX=1;exitY=0.5;exitDx=0;exitDy=0;exitPerimeter=0;entryX=0;entryY=0.5;entryDx=0;entryDy=0;entryPerimeter=0;" edge="1" parent="kOPWEgHHn9tKELu0OoGP-1" source="kOPWEgHHn9tKELu0OoGP-10" target="kOPWEgHHn9tKELu0OoGP-5">
          <mxGeometry relative="1" as="geometry" />
        </mxCell>
        <mxCell id="kOPWEgHHn9tKELu0OoGP-10" value="&lt;font style=&quot;font-size: 16px&quot;&gt;注意力层&lt;/font&gt;" style="sketch=0;points=[[0,0,0],[0.25,0,0],[0.5,0,0],[0.75,0,0],[1,0,0],[0,1,0],[0.25,1,0],[0.5,1,0],[0.75,1,0],[1,1,0],[0,0.25,0],[0,0.5,0],[0,0.75,0],[1,0.25,0],[1,0.5,0],[1,0.75,0]];outlineConnect=0;fontColor=#000000;gradientColor=#4AB29A;gradientDirection=north;fillColor=#ffffff;strokeColor=#000000;dashed=0;verticalLabelPosition=bottom;verticalAlign=top;align=center;html=1;fontSize=12;fontStyle=0;aspect=fixed;shape=mxgraph.aws4.resourceIcon;resIcon=mxgraph.aws4.machine_learning;fontFamily=Helvetica;" vertex="1" parent="kOPWEgHHn9tKELu0OoGP-1">
          <mxGeometry x="415" y="350" width="60" height="40" as="geometry" />
        </mxCell>
        <mxCell id="kOPWEgHHn9tKELu0OoGP-11" value="纹理增强模块" style="swimlane;startSize=23;fontSize=16;fillColor=#bac8d3;strokeColor=#23445d;" vertex="1" parent="kOPWEgHHn9tKELu0OoGP-1">
          <mxGeometry x="20" y="80" width="320" height="110" as="geometry" />
        </mxCell>
        <mxCell id="kOPWEgHHn9tKELu0OoGP-12" value="&lt;font style=&quot;font-size: 14px&quot;&gt;平均池&lt;/font&gt;" style="rounded=1;whiteSpace=wrap;html=1;" vertex="1" parent="kOPWEgHHn9tKELu0OoGP-11">
          <mxGeometry x="10" y="40" width="60" height="30" as="geometry" />
        </mxCell>
        <mxCell id="kOPWEgHHn9tKELu0OoGP-13" style="edgeStyle=orthogonalEdgeStyle;rounded=0;orthogonalLoop=1;jettySize=auto;html=1;entryX=0;entryY=0.5;entryDx=0;entryDy=0;" edge="1" parent="kOPWEgHHn9tKELu0OoGP-11" source="kOPWEgHHn9tKELu0OoGP-14" target="kOPWEgHHn9tKELu0OoGP-18">
          <mxGeometry relative="1" as="geometry" />
        </mxCell>
        <mxCell id="kOPWEgHHn9tKELu0OoGP-14" value="&lt;font style=&quot;font-size: 14px&quot;&gt;非纹理特征图&lt;/font&gt;" style="rounded=0;whiteSpace=wrap;html=1;" vertex="1" parent="kOPWEgHHn9tKELu0OoGP-11">
          <mxGeometry x="90" y="32.25" width="80" height="45.5" as="geometry" />
        </mxCell>
        <mxCell id="kOPWEgHHn9tKELu0OoGP-15" style="edgeStyle=orthogonalEdgeStyle;rounded=0;orthogonalLoop=1;jettySize=auto;html=1;exitX=1;exitY=0.5;exitDx=0;exitDy=0;" edge="1" parent="kOPWEgHHn9tKELu0OoGP-11" source="kOPWEgHHn9tKELu0OoGP-12" target="kOPWEgHHn9tKELu0OoGP-14">
          <mxGeometry relative="1" as="geometry">
            <mxPoint x="101.5" y="57" as="targetPoint" />
          </mxGeometry>
        </mxCell>
        <mxCell id="kOPWEgHHn9tKELu0OoGP-16" value="&lt;font style=&quot;font-size: 14px&quot;&gt;稠密块&lt;/font&gt;" style="rounded=0;whiteSpace=wrap;html=1;" vertex="1" parent="kOPWEgHHn9tKELu0OoGP-11">
          <mxGeometry x="220" y="36.5" width="61.5" height="37" as="geometry" />
        </mxCell>
        <mxCell id="kOPWEgHHn9tKELu0OoGP-17" style="edgeStyle=orthogonalEdgeStyle;rounded=0;orthogonalLoop=1;jettySize=auto;html=1;" edge="1" parent="kOPWEgHHn9tKELu0OoGP-11" source="kOPWEgHHn9tKELu0OoGP-18" target="kOPWEgHHn9tKELu0OoGP-16">
          <mxGeometry relative="1" as="geometry" />
        </mxCell>
        <mxCell id="kOPWEgHHn9tKELu0OoGP-18" value="-&lt;br&gt;" style="ellipse;whiteSpace=wrap;html=1;aspect=fixed;" vertex="1" parent="kOPWEgHHn9tKELu0OoGP-11">
          <mxGeometry x="190" y="50" width="10" height="10" as="geometry" />
        </mxCell>
        <mxCell id="kOPWEgHHn9tKELu0OoGP-19" style="edgeStyle=orthogonalEdgeStyle;rounded=0;orthogonalLoop=1;jettySize=auto;html=1;entryX=0.5;entryY=1;entryDx=0;entryDy=0;strokeWidth=2;" edge="1" parent="kOPWEgHHn9tKELu0OoGP-1" target="kOPWEgHHn9tKELu0OoGP-12">
          <mxGeometry relative="1" as="geometry">
            <mxPoint x="40" y="220" as="targetPoint" />
            <mxPoint x="220" y="220" as="sourcePoint" />
            <Array as="points">
              <mxPoint x="60" y="220" />
            </Array>
          </mxGeometry>
        </mxCell>
        <mxCell id="kOPWEgHHn9tKELu0OoGP-20" style="edgeStyle=orthogonalEdgeStyle;rounded=0;orthogonalLoop=1;jettySize=auto;html=1;entryX=1;entryY=1;entryDx=0;entryDy=0;strokeWidth=2;" edge="1" parent="kOPWEgHHn9tKELu0OoGP-1" source="kOPWEgHHn9tKELu0OoGP-7" target="kOPWEgHHn9tKELu0OoGP-18">
          <mxGeometry relative="1" as="geometry">
            <mxPoint x="300" y="200" as="targetPoint" />
            <Array as="points">
              <mxPoint x="190" y="220" />
              <mxPoint x="219" y="220" />
            </Array>
          </mxGeometry>
        </mxCell>
        <mxCell id="kOPWEgHHn9tKELu0OoGP-21" value="&lt;font style=&quot;font-size: 14px&quot;&gt;注意力图&lt;/font&gt;" style="sketch=0;outlineConnect=0;fontColor=#232F3E;gradientColor=none;fillColor=#56C0A7;strokeColor=none;dashed=0;verticalLabelPosition=bottom;verticalAlign=top;align=center;html=1;fontSize=12;fontStyle=0;aspect=fixed;pointerEvents=1;shape=mxgraph.aws4.sagemaker_model;" vertex="1" parent="kOPWEgHHn9tKELu0OoGP-1">
          <mxGeometry x="431" y="200" width="44" height="44" as="geometry" />
        </mxCell>
        <mxCell id="kOPWEgHHn9tKELu0OoGP-22" value="&lt;font style=&quot;font-size: 14px&quot;&gt;纹理特征网络&lt;/font&gt;" style="sketch=0;outlineConnect=0;fontColor=#232F3E;gradientColor=none;fillColor=#56C0A7;strokeColor=none;dashed=0;verticalLabelPosition=bottom;verticalAlign=top;align=center;html=1;fontSize=12;fontStyle=0;aspect=fixed;pointerEvents=1;shape=mxgraph.aws4.sagemaker_model;" vertex="1" parent="kOPWEgHHn9tKELu0OoGP-1">
          <mxGeometry x="431" y="113" width="44" height="44" as="geometry" />
        </mxCell>
        <mxCell id="kOPWEgHHn9tKELu0OoGP-23" value="" style="endArrow=none;dashed=1;html=1;dashPattern=1 3;strokeWidth=2;" edge="1" parent="kOPWEgHHn9tKELu0OoGP-1">
          <mxGeometry width="50" height="50" relative="1" as="geometry">
            <mxPoint x="390" y="280" as="sourcePoint" />
            <mxPoint x="390" y="90" as="targetPoint" />
          </mxGeometry>
        </mxCell>
        <mxCell id="kOPWEgHHn9tKELu0OoGP-24" value="" style="endArrow=none;dashed=1;html=1;dashPattern=1 3;strokeWidth=2;" edge="1" parent="kOPWEgHHn9tKELu0OoGP-1">
          <mxGeometry width="50" height="50" relative="1" as="geometry">
            <mxPoint x="390" y="280" as="sourcePoint" />
            <mxPoint x="520" y="280" as="targetPoint" />
          </mxGeometry>
        </mxCell>
        <mxCell id="kOPWEgHHn9tKELu0OoGP-25" value="" style="endArrow=none;dashed=1;html=1;dashPattern=1 3;strokeWidth=2;" edge="1" parent="kOPWEgHHn9tKELu0OoGP-1">
          <mxGeometry width="50" height="50" relative="1" as="geometry">
            <mxPoint x="390" y="90" as="sourcePoint" />
            <mxPoint x="520" y="90" as="targetPoint" />
          </mxGeometry>
        </mxCell>
        <mxCell id="kOPWEgHHn9tKELu0OoGP-26" value="" style="endArrow=none;dashed=1;html=1;dashPattern=1 3;strokeWidth=2;" edge="1" parent="kOPWEgHHn9tKELu0OoGP-1">
          <mxGeometry width="50" height="50" relative="1" as="geometry">
            <mxPoint x="520" y="280" as="sourcePoint" />
            <mxPoint x="520" y="90" as="targetPoint" />
          </mxGeometry>
        </mxCell>
        <mxCell id="kOPWEgHHn9tKELu0OoGP-27" value="&lt;span style=&quot;color: rgb(37 , 37 , 37) ; font-family: &amp;#34;roboto&amp;#34; , &amp;#34;arial&amp;#34; , sans-serif&quot;&gt;&lt;font style=&quot;font-size: 16px&quot;&gt;双线性注意力池&lt;/font&gt;&lt;/span&gt;" style="text;html=1;resizable=0;autosize=1;align=center;verticalAlign=middle;points=[];fillColor=none;strokeColor=none;rounded=0;" vertex="1" parent="kOPWEgHHn9tKELu0OoGP-1">
          <mxGeometry x="388" y="60" width="130" height="20" as="geometry" />
        </mxCell>
        <mxCell id="kOPWEgHHn9tKELu0OoGP-28" value="" style="endArrow=classic;html=1;" edge="1" parent="kOPWEgHHn9tKELu0OoGP-1">
          <mxGeometry width="50" height="50" relative="1" as="geometry">
            <mxPoint x="520" y="170" as="sourcePoint" />
            <mxPoint x="610" y="130" as="targetPoint" />
            <Array as="points">
              <mxPoint x="570" y="170" />
              <mxPoint x="570" y="130" />
            </Array>
          </mxGeometry>
        </mxCell>
        <mxCell id="kOPWEgHHn9tKELu0OoGP-29" value="" style="endArrow=classic;html=1;" edge="1" parent="kOPWEgHHn9tKELu0OoGP-1">
          <mxGeometry width="50" height="50" relative="1" as="geometry">
            <mxPoint x="520" y="170" as="sourcePoint" />
            <mxPoint x="610" y="210" as="targetPoint" />
            <Array as="points">
              <mxPoint x="570" y="170" />
              <mxPoint x="570" y="210" />
            </Array>
          </mxGeometry>
        </mxCell>
        <mxCell id="kOPWEgHHn9tKELu0OoGP-30" value="&lt;font style=&quot;font-size: 14px&quot;&gt;纹理特征矩阵&lt;/font&gt;" style="rounded=0;whiteSpace=wrap;html=1;" vertex="1" parent="kOPWEgHHn9tKELu0OoGP-1">
          <mxGeometry x="610" y="110" width="90" height="35" as="geometry" />
        </mxCell>
        <mxCell id="kOPWEgHHn9tKELu0OoGP-31" value="&lt;font style=&quot;font-size: 14px&quot;&gt;全局特征&lt;/font&gt;" style="rounded=0;whiteSpace=wrap;html=1;" vertex="1" parent="kOPWEgHHn9tKELu0OoGP-1">
          <mxGeometry x="610" y="200" width="90" height="35" as="geometry" />
        </mxCell>
        <mxCell id="kOPWEgHHn9tKELu0OoGP-32" value="" style="endArrow=none;dashed=1;html=1;dashPattern=1 3;strokeWidth=2;strokeColor=#009900;" edge="1" parent="kOPWEgHHn9tKELu0OoGP-1">
          <mxGeometry width="50" height="50" relative="1" as="geometry">
            <mxPoint x="590" y="100" as="sourcePoint" />
            <mxPoint x="710" y="250" as="targetPoint" />
            <Array as="points">
              <mxPoint x="710" y="100" />
            </Array>
          </mxGeometry>
        </mxCell>
        <mxCell id="kOPWEgHHn9tKELu0OoGP-33" value="&lt;font style=&quot;font-size: 16px&quot; color=&quot;#009900&quot;&gt;分类器&lt;/font&gt;" style="text;html=1;resizable=0;autosize=1;align=center;verticalAlign=middle;points=[];fillColor=none;strokeColor=none;rounded=0;" vertex="1" parent="kOPWEgHHn9tKELu0OoGP-1">
          <mxGeometry x="620" y="70" width="60" height="20" as="geometry" />
        </mxCell>
        <mxCell id="kOPWEgHHn9tKELu0OoGP-34" style="edgeStyle=orthogonalEdgeStyle;rounded=0;orthogonalLoop=1;jettySize=auto;html=1;" edge="1" parent="1" source="kOPWEgHHn9tKELu0OoGP-10">
          <mxGeometry relative="1" as="geometry">
            <mxPoint x="1275" y="420" as="targetPoint" />
          </mxGeometry>
        </mxCell>
        <mxCell id="kOPWEgHHn9tKELu0OoGP-35" style="edgeStyle=orthogonalEdgeStyle;rounded=0;orthogonalLoop=1;jettySize=auto;html=1;exitX=1;exitY=0.5;exitDx=0;exitDy=0;" edge="1" parent="1" source="kOPWEgHHn9tKELu0OoGP-11">
          <mxGeometry relative="1" as="geometry">
            <mxPoint x="1250" y="285" as="targetPoint" />
          </mxGeometry>
        </mxCell>
        <mxCell id="kOPWEgHHn9tKELu0OoGP-36" style="edgeStyle=orthogonalEdgeStyle;rounded=0;orthogonalLoop=1;jettySize=auto;html=1;" edge="1" parent="1" source="kOPWEgHHn9tKELu0OoGP-5">
          <mxGeometry relative="1" as="geometry">
            <mxPoint x="1350" y="350" as="targetPoint" />
            <Array as="points">
              <mxPoint x="1395" y="430" />
              <mxPoint x="1395" y="430" />
            </Array>
          </mxGeometry>
        </mxCell>
        <mxCell id="kOPWEgHHn9tKELu0OoGP-37" value="" style="endArrow=none;dashed=1;html=1;dashPattern=1 3;strokeWidth=2;strokeColor=#009900;" edge="1" parent="1">
          <mxGeometry width="50" height="50" relative="1" as="geometry">
            <mxPoint x="1540" y="400" as="sourcePoint" />
            <mxPoint x="1420" y="250" as="targetPoint" />
            <Array as="points">
              <mxPoint x="1420" y="400" />
            </Array>
          </mxGeometry>
        </mxCell>
        <mxCell id="kOPWEgHHn9tKELu0OoGP-38" value="" style="endArrow=classic;html=1;strokeWidth=3;strokeColor=#2D7600;fillColor=#60a917;" edge="1" parent="1">
          <mxGeometry width="50" height="50" relative="1" as="geometry">
            <mxPoint x="1480" y="400" as="sourcePoint" />
            <mxPoint x="1480" y="700" as="targetPoint" />
            <Array as="points" />
          </mxGeometry>
        </mxCell>
      </root>
    </mxGraphModel>
  </diagram>
</mxfile>
